<svg id="visual" viewBox="0 0 960 540" width="960" height="540" xmlns="http://www.w3.org/2000/svg" xmlns:xlink="http://www.w3.org/1999/xlink" version="1.1"><g stroke-width="1" stroke-linejoin="bevel"><path d="M503 278L552 341L556 290Z" fill="#15384f" stroke="#15384f"></path><path d="M503 278L458 356L552 341Z" fill="#0c2435" stroke="#0c2435"></path><path d="M556 290L490 213L503 278Z" fill="#112e42" stroke="#112e42"></path><path d="M503 278L406 344L458 356Z" fill="#19435d" stroke="#19435d"></path><path d="M373 267L406 344L503 278Z" fill="#0c2435" stroke="#0c2435"></path><path d="M705 248L585 198L556 290Z" fill="#081a28" stroke="#081a28"></path><path d="M556 290L585 198L490 213Z" fill="#1d4e6b" stroke="#1d4e6b"></path><path d="M352 464L507 465L458 356Z" fill="#0c2435" stroke="#0c2435"></path><path d="M458 356L507 465L552 341Z" fill="#0c2435" stroke="#0c2435"></path><path d="M490 213L373 267L503 278Z" fill="#277297" stroke="#277297"></path><path d="M507 465L573 465L552 341Z" fill="#0c2435" stroke="#0c2435"></path><path d="M552 341L694 344L556 290Z" fill="#297ea6" stroke="#297ea6"></path><path d="M690 433L694 344L552 341Z" fill="#246688" stroke="#246688"></path><path d="M458 70L413 157L490 213Z" fill="#277297" stroke="#277297"></path><path d="M490 213L413 157L373 267Z" fill="#112e42" stroke="#112e42"></path><path d="M694 344L705 248L556 290Z" fill="#15384f" stroke="#15384f"></path><path d="M705 248L643 154L585 198Z" fill="#1d4e6b" stroke="#1d4e6b"></path><path d="M551 59L458 70L490 213Z" fill="#1d4e6b" stroke="#1d4e6b"></path><path d="M573 465L690 433L552 341Z" fill="#112e42" stroke="#112e42"></path><path d="M694 344L759 288L705 248Z" fill="#246688" stroke="#246688"></path><path d="M264 347L352 464L406 344Z" fill="#15384f" stroke="#15384f"></path><path d="M406 344L352 464L458 356Z" fill="#081a28" stroke="#081a28"></path><path d="M761 373L759 288L694 344Z" fill="#00101c" stroke="#00101c"></path><path d="M705 248L693 123L643 154Z" fill="#1d4e6b" stroke="#1d4e6b"></path><path d="M507 465L593 540L573 465Z" fill="#0c2435" stroke="#0c2435"></path><path d="M573 465L688 540L690 433Z" fill="#112e42" stroke="#112e42"></path><path d="M450 540L593 540L507 465Z" fill="#1d4e6b" stroke="#1d4e6b"></path><path d="M352 464L450 540L507 465Z" fill="#19435d" stroke="#19435d"></path><path d="M690 433L761 373L694 344Z" fill="#1d4e6b" stroke="#1d4e6b"></path><path d="M771 461L761 373L690 433Z" fill="#0c2435" stroke="#0c2435"></path><path d="M413 157L283 245L373 267Z" fill="#081a28" stroke="#081a28"></path><path d="M373 267L264 347L406 344Z" fill="#19435d" stroke="#19435d"></path><path d="M551 59L490 213L585 198Z" fill="#112e42" stroke="#112e42"></path><path d="M413 157L262 158L283 245Z" fill="#1d4e6b" stroke="#1d4e6b"></path><path d="M795 174L693 123L705 248Z" fill="#081a28" stroke="#081a28"></path><path d="M643 154L551 59L585 198Z" fill="#246688" stroke="#246688"></path><path d="M693 123L551 59L643 154Z" fill="#00101c" stroke="#00101c"></path><path d="M283 245L264 347L373 267Z" fill="#0c2435" stroke="#0c2435"></path><path d="M458 70L368 100L413 157Z" fill="#297ea6" stroke="#297ea6"></path><path d="M310 540L365 540L352 464Z" fill="#112e42" stroke="#112e42"></path><path d="M352 464L365 540L450 540Z" fill="#00101c" stroke="#00101c"></path><path d="M593 540L688 540L573 465Z" fill="#15384f" stroke="#15384f"></path><path d="M736 540L771 461L690 433Z" fill="#081a28" stroke="#081a28"></path><path d="M872 266L795 174L759 288Z" fill="#1d4e6b" stroke="#1d4e6b"></path><path d="M368 100L262 158L413 157Z" fill="#15384f" stroke="#15384f"></path><path d="M283 245L183 242L264 347Z" fill="#112e42" stroke="#112e42"></path><path d="M759 288L795 174L705 248Z" fill="#297ea6" stroke="#297ea6"></path><path d="M872 266L759 288L878 331Z" fill="#00101c" stroke="#00101c"></path><path d="M220 478L256 466L170 381Z" fill="#277297" stroke="#277297"></path><path d="M264 347L256 466L352 464Z" fill="#246688" stroke="#246688"></path><path d="M256 466L310 540L352 464Z" fill="#0c2435" stroke="#0c2435"></path><path d="M688 540L736 540L690 433Z" fill="#277297" stroke="#277297"></path><path d="M795 174L745 92L693 123Z" fill="#15384f" stroke="#15384f"></path><path d="M663 0L572 0L551 59Z" fill="#277297" stroke="#277297"></path><path d="M458 70L389 0L368 100Z" fill="#205a7a" stroke="#205a7a"></path><path d="M368 100L284 86L262 158Z" fill="#205a7a" stroke="#205a7a"></path><path d="M551 59L474 0L458 70Z" fill="#0c2435" stroke="#0c2435"></path><path d="M572 0L474 0L551 59Z" fill="#19435d" stroke="#19435d"></path><path d="M663 0L551 59L693 123Z" fill="#0c2435" stroke="#0c2435"></path><path d="M302 0L284 86L368 100Z" fill="#112e42" stroke="#112e42"></path><path d="M474 0L389 0L458 70Z" fill="#112e42" stroke="#112e42"></path><path d="M218 56L200 198L262 158Z" fill="#112e42" stroke="#112e42"></path><path d="M262 158L200 198L283 245Z" fill="#00101c" stroke="#00101c"></path><path d="M745 92L663 0L693 123Z" fill="#205a7a" stroke="#205a7a"></path><path d="M170 381L256 466L264 347Z" fill="#112e42" stroke="#112e42"></path><path d="M256 466L220 478L310 540Z" fill="#081a28" stroke="#081a28"></path><path d="M200 198L183 242L283 245Z" fill="#081a28" stroke="#081a28"></path><path d="M886 540L852 437L771 461Z" fill="#15384f" stroke="#15384f"></path><path d="M771 461L852 437L761 373Z" fill="#0c2435" stroke="#0c2435"></path><path d="M878 331L759 288L761 373Z" fill="#081a28" stroke="#081a28"></path><path d="M795 174L835 91L745 92Z" fill="#19435d" stroke="#19435d"></path><path d="M852 437L878 331L761 373Z" fill="#19435d" stroke="#19435d"></path><path d="M183 242L170 381L264 347Z" fill="#15384f" stroke="#15384f"></path><path d="M872 266L872 162L795 174Z" fill="#0c2435" stroke="#0c2435"></path><path d="M745 92L771 0L663 0Z" fill="#297ea6" stroke="#297ea6"></path><path d="M960 183L872 162L872 266Z" fill="#1d4e6b" stroke="#1d4e6b"></path><path d="M872 162L835 91L795 174Z" fill="#277297" stroke="#277297"></path><path d="M389 0L302 0L368 100Z" fill="#277297" stroke="#277297"></path><path d="M284 86L218 56L262 158Z" fill="#112e42" stroke="#112e42"></path><path d="M302 0L218 56L284 86Z" fill="#277297" stroke="#277297"></path><path d="M76 208L85 280L183 242Z" fill="#081a28" stroke="#081a28"></path><path d="M835 91L771 0L745 92Z" fill="#00101c" stroke="#00101c"></path><path d="M103 459L160 540L220 478Z" fill="#297ea6" stroke="#297ea6"></path><path d="M220 478L160 540L310 540Z" fill="#297ea6" stroke="#297ea6"></path><path d="M736 540L886 540L771 461Z" fill="#19435d" stroke="#19435d"></path><path d="M852 437L960 361L878 331Z" fill="#246688" stroke="#246688"></path><path d="M878 331L960 253L872 266Z" fill="#00101c" stroke="#00101c"></path><path d="M76 208L183 242L200 198Z" fill="#205a7a" stroke="#205a7a"></path><path d="M183 242L85 280L170 381Z" fill="#277297" stroke="#277297"></path><path d="M170 381L103 459L220 478Z" fill="#00101c" stroke="#00101c"></path><path d="M85 280L85 349L170 381Z" fill="#081a28" stroke="#081a28"></path><path d="M960 429L960 361L852 437Z" fill="#1d4e6b" stroke="#1d4e6b"></path><path d="M960 361L960 253L878 331Z" fill="#00101c" stroke="#00101c"></path><path d="M960 79L881 0L835 91Z" fill="#205a7a" stroke="#205a7a"></path><path d="M835 91L881 0L771 0Z" fill="#19435d" stroke="#19435d"></path><path d="M85 349L103 459L170 381Z" fill="#246688" stroke="#246688"></path><path d="M886 540L960 429L852 437Z" fill="#19435d" stroke="#19435d"></path><path d="M302 0L192 0L218 56Z" fill="#19435d" stroke="#19435d"></path><path d="M109 107L76 208L200 198Z" fill="#15384f" stroke="#15384f"></path><path d="M960 253L960 183L872 266Z" fill="#112e42" stroke="#112e42"></path><path d="M109 107L200 198L218 56Z" fill="#00101c" stroke="#00101c"></path><path d="M85 280L0 355L85 349Z" fill="#15384f" stroke="#15384f"></path><path d="M129 0L109 107L218 56Z" fill="#246688" stroke="#246688"></path><path d="M960 79L835 91L872 162Z" fill="#081a28" stroke="#081a28"></path><path d="M886 540L960 540L960 429Z" fill="#246688" stroke="#246688"></path><path d="M960 183L960 79L872 162Z" fill="#112e42" stroke="#112e42"></path><path d="M192 0L129 0L218 56Z" fill="#205a7a" stroke="#205a7a"></path><path d="M0 211L0 247L76 208Z" fill="#277297" stroke="#277297"></path><path d="M0 427L103 459L85 349Z" fill="#297ea6" stroke="#297ea6"></path><path d="M0 427L73 540L103 459Z" fill="#1d4e6b" stroke="#1d4e6b"></path><path d="M103 459L73 540L160 540Z" fill="#205a7a" stroke="#205a7a"></path><path d="M0 247L0 355L85 280Z" fill="#19435d" stroke="#19435d"></path><path d="M0 247L85 280L76 208Z" fill="#00101c" stroke="#00101c"></path><path d="M0 211L76 208L0 123Z" fill="#081a28" stroke="#081a28"></path><path d="M0 123L76 208L109 107Z" fill="#297ea6" stroke="#297ea6"></path><path d="M0 355L0 427L85 349Z" fill="#1d4e6b" stroke="#1d4e6b"></path><path d="M960 79L960 0L881 0Z" fill="#246688" stroke="#246688"></path><path d="M0 0L0 123L109 107Z" fill="#081a28" stroke="#081a28"></path><path d="M0 427L0 540L73 540Z" fill="#112e42" stroke="#112e42"></path><path d="M129 0L0 0L109 107Z" fill="#19435d" stroke="#19435d"></path></g></svg>